<svg width="34" height="34" viewBox="0 0 34 34" fill="none" xmlns="http://www.w3.org/2000/svg">
<rect width="34" height="34" rx="12" fill="#D9D9D9"/>
<path d="M5.5 7L6.70575 11.5M6.70575 11.5L9.78711 23H25L28.0814 11.5H6.70575Z" stroke="#0085FF" stroke-width="4" stroke-linecap="round" stroke-linejoin="round"/>
<path d="M11.5 27.5C12.0523 27.5 12.5 27.9477 12.5 28.5C12.5 29.0523 12.0523 29.5 11.5 29.5C10.9477 29.5 10.5 29.0523 10.5 28.5C10.5 27.9477 10.9477 27.5 11.5 27.5Z" fill="#0085FF" stroke="#0085FF" stroke-width="3"/>
<path d="M23.5 27C24.3284 27 25 27.6716 25 28.5C25 29.3284 24.3284 30 23.5 30C22.6716 30 22 29.3284 22 28.5C22 27.6716 22.6716 27 23.5 27Z" fill="#0085FF" stroke="#0085FF" stroke-width="2"/>
</svg>
